<svg width="65" height="32" viewBox="0 0 65 32" fill="none" xmlns="http://www.w3.org/2000/svg">
<path d="M32.3333 16C31.2333 16 30.2916 15.6083 29.5083 14.825C28.7249 14.0417 28.3333 13.1 28.3333 12C28.3333 10.9 28.7249 9.95833 29.5083 9.175C30.2916 8.39167 31.2333 8 32.3333 8C33.4333 8 34.3749 8.39167 35.1583 9.175C35.9416 9.95833 36.3333 10.9 36.3333 12C36.3333 13.1 35.9416 14.0417 35.1583 14.825C34.3749 15.6083 33.4333 16 32.3333 16ZM24.3333 24V21.2C24.3333 20.6333 24.4791 20.1125 24.7708 19.6375C25.0624 19.1625 25.4499 18.8 25.9333 18.55C26.9666 18.0333 28.0166 17.6458 29.0833 17.3875C30.1499 17.1292 31.2333 17 32.3333 17C33.4333 17 34.5166 17.1292 35.5833 17.3875C36.6499 17.6458 37.6999 18.0333 38.7333 18.55C39.2166 18.8 39.6041 19.1625 39.8958 19.6375C40.1874 20.1125 40.3333 20.6333 40.3333 21.2V24H24.3333ZM26.3333 22H38.3333V21.2C38.3333 21.0167 38.2874 20.85 38.1958 20.7C38.1041 20.55 37.9833 20.4333 37.8333 20.35C36.9333 19.9 36.0249 19.5625 35.1083 19.3375C34.1916 19.1125 33.2666 19 32.3333 19C31.3999 19 30.4749 19.1125 29.5583 19.3375C28.6416 19.5625 27.7333 19.9 26.8333 20.35C26.6833 20.4333 26.5624 20.55 26.4708 20.7C26.3791 20.85 26.3333 21.0167 26.3333 21.2V22ZM32.3333 14C32.8833 14 33.3541 13.8042 33.7458 13.4125C34.1374 13.0208 34.3333 12.55 34.3333 12C34.3333 11.45 34.1374 10.9792 33.7458 10.5875C33.3541 10.1958 32.8833 10 32.3333 10C31.7833 10 31.3124 10.1958 30.9208 10.5875C30.5291 10.9792 30.3333 11.45 30.3333 12C30.3333 12.55 30.5291 13.0208 30.9208 13.4125C31.3124 13.8042 31.7833 14 32.3333 14Z" fill="#02369C"/>
</svg>
