<svg width="65" height="32" viewBox="0 0 65 32" fill="none" xmlns="http://www.w3.org/2000/svg">
<g clip-path="url(#clip0_7485_792)">
<rect x="0.5" width="64" height="32" rx="16" fill="#CCD7EB"/>
<path d="M42.775 18.475L40.525 16.225C40.225 15.925 39.775 15.925 39.475 16.225L32.5 23.2V26.5H35.8L42.775 19.525C43.075 19.225 43.075 18.775 42.775 18.475ZM35.2 25H34V23.8L37.75 20.05L38.95 21.25L35.2 25ZM40 20.2L38.8 19L40 17.8L41.2 19L40 20.2ZM28 21.25H29.5V22.75H28V21.25ZM31 17.5H34V19H31V17.5ZM28 17.5H29.5V19H28V17.5ZM31 13.75H37V15.25H31V13.75ZM28 13.75H29.5V15.25H28V13.75Z" fill="#02369C"/>
<path d="M25.75 25V9.25H28V11.5H37V9.25H39.25V13.75H40.75V9.25C40.75 8.425 40.075 7.75 39.25 7.75H37V7C37 6.175 36.325 5.5 35.5 5.5H29.5C28.675 5.5 28 6.175 28 7V7.75H25.75C24.925 7.75 24.25 8.425 24.25 9.25V25C24.25 25.825 24.925 26.5 25.75 26.5H29.5V25H25.75ZM29.5 7H35.5V10H29.5V7Z" fill="#02369C"/>
</g>
<defs>
<clipPath id="clip0_7485_792">
<rect x="0.5" width="64" height="32" rx="16" fill="white"/>
</clipPath>
</defs>
</svg>
