<svg width="25" height="24" viewBox="0 0 25 24" fill="none" xmlns="http://www.w3.org/2000/svg">
<path d="M12.6665 12C11.5665 12 10.6248 11.6083 9.8415 10.825C9.05817 10.0417 8.6665 9.1 8.6665 8C8.6665 6.9 9.05817 5.95833 9.8415 5.175C10.6248 4.39167 11.5665 4 12.6665 4C13.7665 4 14.7082 4.39167 15.4915 5.175C16.2748 5.95833 16.6665 6.9 16.6665 8C16.6665 9.1 16.2748 10.0417 15.4915 10.825C14.7082 11.6083 13.7665 12 12.6665 12ZM4.6665 20V17.2C4.6665 16.6333 4.81234 16.1125 5.104 15.6375C5.39567 15.1625 5.78317 14.8 6.2665 14.55C7.29984 14.0333 8.34984 13.6458 9.4165 13.3875C10.4832 13.1292 11.5665 13 12.6665 13C13.7665 13 14.8498 13.1292 15.9165 13.3875C16.9832 13.6458 18.0332 14.0333 19.0665 14.55C19.5498 14.8 19.9373 15.1625 20.229 15.6375C20.5207 16.1125 20.6665 16.6333 20.6665 17.2V20H4.6665ZM6.6665 18H18.6665V17.2C18.6665 17.0167 18.6207 16.85 18.529 16.7C18.4373 16.55 18.3165 16.4333 18.1665 16.35C17.2665 15.9 16.3582 15.5625 15.4415 15.3375C14.5248 15.1125 13.5998 15 12.6665 15C11.7332 15 10.8082 15.1125 9.8915 15.3375C8.97484 15.5625 8.0665 15.9 7.1665 16.35C7.0165 16.4333 6.89567 16.55 6.804 16.7C6.71234 16.85 6.6665 17.0167 6.6665 17.2V18ZM12.6665 10C13.2165 10 13.6873 9.80417 14.079 9.4125C14.4707 9.02083 14.6665 8.55 14.6665 8C14.6665 7.45 14.4707 6.97917 14.079 6.5875C13.6873 6.19583 13.2165 6 12.6665 6C12.1165 6 11.6457 6.19583 11.254 6.5875C10.8623 6.97917 10.6665 7.45 10.6665 8C10.6665 8.55 10.8623 9.02083 11.254 9.4125C11.6457 9.80417 12.1165 10 12.6665 10Z" fill="#878787"/>
</svg>
